<?xml version="1.0" encoding="UTF-8"?><svg id="a" xmlns="http://www.w3.org/2000/svg" viewBox="0 0 595.3 182.7"><defs><style>.b{fill:#fff;}</style></defs><rect class="b" x="64.6" y="39.5" width="27.8" height="127.9" rx="13.9" ry="13.9"/><rect class="b" x="30.1" y="32.7" width="27.8" height="127.9" rx="13.9" ry="13.9"/><rect class="b" x="99" y="12.1" width="27.8" height="127.9" rx="13.9" ry="13.9"/><path class="b" d="M188.8,74.4h13.4v25.7c-7,5.3-16.6,8.1-25.7,8.1-19.9,0-34.6-13.7-34.6-32.8s14.7-32.8,34.9-32.8,20.4,3.8,26.6,11l-9.4,8.7c-4.6-4.9-10-7.2-16.4-7.2-12.3,0-20.8,8.3-20.8,20.3s8.4,20.3,20.6,20.3,7.7-.7,11.4-2.7v-18.6Z"/><path class="b" d="M255.3,107.1l-12.2-17.7h-13.5v17.7h-14.7v-63.5h27.5c17,0,27.6,8.8,27.6,23s-4.8,16.5-13.1,20l14.2,20.4h-15.8ZM241.6,55.6h-12v22.1h12c9,0,13.5-4.2,13.5-11.1s-4.5-11.1-13.5-11.1Z"/><path class="b" d="M276.6,75.3c0-18.9,14.7-32.8,34.7-32.8s34.7,13.9,34.7,32.8-14.8,32.8-34.7,32.8-34.7-14-34.7-32.8ZM331.2,75.3c0-12.1-8.5-20.3-19.9-20.3s-19.9,8.3-19.9,20.3,8.5,20.3,19.9,20.3,19.9-8.3,19.9-20.3Z"/><path class="b" d="M450.1,43.6l-20.8,63.5h-15.8l-14-43-14.4,43h-15.7l-20.9-63.5h15.2l14.3,44.6,15-44.6h13.6l14.5,45,14.8-45h14.1Z"/><path class="b" d="M470.7,55.6h-20.3v-12h55.3v12h-20.3v51.5h-14.7v-51.5Z"/><path class="b" d="M570.9,43.6v63.5h-14.7v-26h-28.8v26h-14.7v-63.5h14.7v25h28.8v-25h14.7Z"/><path class="b" d="M158.1,133.1c0,3-2.2,4.7-6.6,4.7h-8.1v-17.7h7.6c3.9,0,6.2,1.7,6.2,4.5s-1.1,3.4-2.7,4c2.3.5,3.6,2,3.6,4.4ZM145.2,121.7v6.4h5.6c2.8,0,4.5-1.1,4.5-3.2s-1.6-3.2-4.5-3.2h-5.6ZM156.2,132.9c0-2.3-1.7-3.3-4.8-3.3h-6.2v6.6h6.2c3.1,0,4.8-1,4.8-3.3Z"/><path class="b" d="M167.3,130.2v-10.1h1.9v10.1c0,4.2,2,6.1,5.4,6.1s5.4-1.9,5.4-6.1v-10.1h1.8v10.1c0,5.1-2.7,7.7-7.2,7.7s-7.3-2.6-7.3-7.7Z"/><path class="b" d="M190.8,135.7l.7-1.4c1.3,1.2,3.5,2.1,5.8,2.1,3.3,0,4.7-1.4,4.7-3.1,0-4.8-10.9-1.9-10.9-8.4s2-4.8,6.5-4.8,4.1.6,5.5,1.6l-.6,1.5c-1.5-1-3.3-1.5-4.8-1.5-3.2,0-4.7,1.4-4.7,3.2,0,4.8,10.9,1.9,10.9,8.4s-2.1,4.8-6.6,4.8-5.3-.9-6.6-2.3Z"/><path class="b" d="M213.1,120.1h1.9v17.7h-1.9v-17.7Z"/><path class="b" d="M240.5,120.1v17.7h-1.5l-11.4-14.3v14.3h-1.9v-17.7h1.5l11.4,14.3v-14.3h1.8Z"/><path class="b" d="M263.8,136.2v1.6h-12.5v-17.7h12.1v1.6h-10.3v6.3h9.1v1.6h-9.1v6.6h10.6Z"/><path class="b" d="M271.6,135.7l.7-1.4c1.3,1.2,3.5,2.1,5.8,2.1,3.3,0,4.7-1.4,4.7-3.1,0-4.8-10.9-1.9-10.9-8.4s2-4.8,6.5-4.8,4.1.6,5.5,1.6l-.6,1.5c-1.5-1-3.3-1.5-4.8-1.5-3.2,0-4.7,1.4-4.7,3.2,0,4.8,10.9,1.9,10.9,8.4s-2.1,4.8-6.6,4.8-5.3-.9-6.6-2.3Z"/><path class="b" d="M292.1,135.7l.7-1.4c1.3,1.2,3.5,2.1,5.8,2.1,3.3,0,4.7-1.4,4.7-3.1,0-4.8-10.9-1.9-10.9-8.4s2-4.8,6.5-4.8,4.1.6,5.5,1.6l-.6,1.5c-1.5-1-3.3-1.5-4.8-1.5-3.2,0-4.7,1.4-4.7,3.2,0,4.8,10.9,1.9,10.9,8.4s-2.1,4.8-6.6,4.8-5.3-.9-6.6-2.3Z"/><path class="b" d="M326.1,120.1h7.2c5.7,0,9.5,3.6,9.5,8.8s-3.8,8.8-9.5,8.8h-7.2v-17.7ZM333.2,136.2c4.7,0,7.7-3,7.7-7.2s-3-7.2-7.7-7.2h-5.2v14.4h5.2Z"/><path class="b" d="M364.5,136.2v1.6h-12.5v-17.7h12.1v1.6h-10.3v6.3h9.1v1.6h-9.1v6.6h10.6Z"/><path class="b" d="M388.4,120.1l-7.8,17.7h-1.8l-7.8-17.7h2l6.8,15.4,6.8-15.4h1.9Z"/><path class="b" d="M408.5,136.2v1.6h-12.5v-17.7h12.1v1.6h-10.3v6.3h9.1v1.6h-9.1v6.6h10.6Z"/><path class="b" d="M417.9,120.1h1.9v16.1h9.9v1.6h-11.8v-17.7Z"/><path class="b" d="M435.9,129c0-5.2,3.9-9,9.3-9s9.3,3.8,9.3,9-4,9-9.3,9-9.3-3.8-9.3-9ZM452.6,129c0-4.2-3.2-7.3-7.4-7.3s-7.5,3.1-7.5,7.3,3.2,7.3,7.5,7.3,7.4-3.1,7.4-7.3Z"/><path class="b" d="M477.6,126.2c0,3.8-2.7,6-7.2,6h-4.7v5.6h-1.9v-17.7h6.6c4.5,0,7.2,2.3,7.2,6.1ZM475.7,126.2c0-2.8-1.9-4.4-5.4-4.4h-4.7v8.8h4.7c3.5,0,5.4-1.6,5.4-4.4Z"/><path class="b" d="M505,120.1v17.7h-1.8v-14.1l-6.9,11.9h-.9l-6.9-11.8v14.1h-1.8v-17.7h1.5l7.7,13.1,7.6-13.1h1.5Z"/><path class="b" d="M528.3,136.2v1.6h-12.5v-17.7h12.1v1.6h-10.3v6.3h9.1v1.6h-9.1v6.6h10.6Z"/><path class="b" d="M552.5,120.1v17.7h-1.5l-11.4-14.3v14.3h-1.9v-17.7h1.5l11.4,14.3v-14.3h1.8Z"/><path class="b" d="M566.8,121.7h-6.2v-1.6h14.3v1.6h-6.2v16.1h-1.9v-16.1Z"/></svg>